<svg width="100" height="100" fill="none" xmlns="http://www.w3.org/2000/svg"><path d="M98.576 68.537h-.002v-.006l-6.453-.92a1.66 1.66 0 0 1-.762-2.972l2.116-1.583h4.427a1.66 1.66 0 0 0 1.66-1.66V1.66A1.66 1.66 0 0 0 97.901 0H1.66A1.66 1.66 0 0 0 0 1.66v59.736c0 .917.743 1.66 1.66 1.66h4.29L3.805 65.2a1.66 1.66 0 0 0-.193 2.114l3.153 4.587-5.454 1.145A1.66 1.66 0 0 0 0 74.67v6.638c0 .784.55 1.462 1.318 1.624l5.454 1.147-3.153 4.585a1.66 1.66 0 0 0 .193 2.113l4.978 4.979a1.66 1.66 0 0 0 2.114.192l4.585-3.153 1.146 5.455a1.66 1.66 0 0 0 1.618 1.31h6.637a1.66 1.66 0 0 0 1.625-1.317l1.146-5.456 4.585 3.161a1.66 1.66 0 0 0 2.114-.192l4.978-4.979a1.66 1.66 0 0 0 .193-2.114l-3.153-4.586 5.454-1.145a1.66 1.66 0 0 0 1.311-1.624V74.67a1.66 1.66 0 0 0-1.317-1.624L36.37 71.9l3.153-4.585a1.66 1.66 0 0 0-.192-2.114l-2.14-2.145h6.849l-1.327 9.234a1.66 1.66 0 0 0 1.425 1.883l6.453.921a1.66 1.66 0 0 1 .762 2.972l-5.224 3.906a1.66 1.66 0 0 0-.332 2.323l5.974 7.965a1.66 1.66 0 0 0 2.323.332l5.215-3.913a1.66 1.66 0 0 1 2.639 1.564l-.923 6.453a1.66 1.66 0 0 0 1.407 1.878h.002l9.855 1.407a1.66 1.66 0 0 0 1.878-1.407l.923-6.453a1.66 1.66 0 0 1 2.97-.762l3.911 5.216a1.66 1.66 0 0 0 2.323.331l7.965-5.973a1.66 1.66 0 0 0 .332-2.323l-3.913-5.216a1.66 1.66 0 0 1 1.564-2.638l6.453.921a1.66 1.66 0 0 0 1.878-1.407l1.409-9.855a1.66 1.66 0 0 0-1.407-1.878Zm-58.751 7.481v3.943l-4.137.87a3.319 3.319 0 0 0-2.05 5.132l2.37 3.447-3.017 3.016-3.446-2.376a3.319 3.319 0 0 0-5.13 2.05l-.872 4.143H19.6l-.87-4.135a3.319 3.319 0 0 0-5.123-2.051l-3.455 2.37-3.017-3.017 2.376-3.447a3.319 3.319 0 0 0-2.049-5.132l-4.143-.87V76.02l4.136-.87a3.319 3.319 0 0 0 2.05-5.124l-2.37-3.455 3.017-3.017 3.455 2.37a3.319 3.319 0 0 0 5.13-2.05l.863-4.136h3.943l.871 4.135a3.319 3.319 0 0 0 5.13 2.051l3.447-2.37 3.017 3.017-2.37 3.455a3.319 3.319 0 0 0 2.05 5.132l4.137.862ZM28.652 62.507l-.995.684-1.147-5.454a1.66 1.66 0 0 0-1.62-1.318h-3.318V44.803h6.637v16.593c.003.413.161.81.443 1.11Zm7.854-27.66a1.66 1.66 0 0 0-1.66 1.66v23.23h-3.318V43.144a1.66 1.66 0 0 0-1.66-1.659h-9.956a1.66 1.66 0 0 0-1.66 1.66v13.274a1.66 1.66 0 0 0-1.624 1.318l-1.146 5.456-4.585-3.161a1.625 1.625 0 0 0-.94-.276v-.018H3.318V3.319h92.924v54.206l-5.31-7.08a1.66 1.66 0 0 0-2.323-.332l-5.216 3.912a1.66 1.66 0 0 1-2.638-1.563l.923-6.453a1.639 1.639 0 0 0-.37-1.28V14.935a1.66 1.66 0 0 0-1.66-1.66h-9.956a1.66 1.66 0 0 0-1.66 1.66v32.713l-.42 2.937a1.646 1.646 0 0 1-2.898.83V23.23a1.66 1.66 0 0 0-1.66-1.66H53.1a1.66 1.66 0 0 0-1.659 1.66v27.794l-.995.747a1.66 1.66 0 0 0-.332 2.323l3.912 5.215a1.66 1.66 0 0 1-1.563 2.639l-4.34-.62V36.507a1.66 1.66 0 0 0-1.66-1.66h-9.956ZM77.99 16.595v27.213l-6.638-.95V16.595h6.638ZM61.396 24.89v22.126l-.663-.886a1.66 1.66 0 0 0-2.324-.332l-3.65 2.738V24.89h6.637ZM44.803 59.737h-6.638V38.165h6.638v21.572Zm50.72 18.419-4.813-.687a4.978 4.978 0 0 0-4.685 7.915l2.917 3.89-5.31 3.982-2.916-3.888a4.978 4.978 0 0 0-8.912 2.282l-.687 4.812-6.568-.94.687-4.812a4.978 4.978 0 0 0-7.914-4.685l-3.89 2.917-3.983-5.31 3.886-2.916a4.978 4.978 0 0 0-2.282-8.91l-4.812-.69.94-6.569 4.812.687a4.978 4.978 0 0 0 4.686-7.915l-2.916-3.888 5.31-3.982 2.916 3.888a4.978 4.978 0 0 0 8.912-2.282l.687-4.812 6.57.94-.688 4.811a4.978 4.978 0 0 0 7.914 4.686l3.89-2.917 3.982 5.31-3.886 2.916a4.978 4.978 0 0 0 2.281 8.91l4.813.689-.941 6.568Z" fill="#F09F0C"/><path d="M21.572 68.033c-5.499 0-9.956 4.457-9.956 9.956s4.457 9.956 9.956 9.956c5.498 0 9.956-4.457 9.956-9.956-.006-5.497-4.46-9.95-9.956-9.956Zm0 16.593a6.637 6.637 0 1 1 0-13.275 6.637 6.637 0 0 1 0 13.275ZM71.352 58.077c-7.331 0-13.274 5.943-13.274 13.275 0 7.331 5.943 13.274 13.274 13.274 7.332 0 13.275-5.943 13.275-13.275-.008-7.328-5.946-13.266-13.275-13.274Zm0 23.23c-5.498 0-9.956-4.457-9.956-9.956 0-5.498 4.458-9.956 9.956-9.956 5.5 0 9.957 4.458 9.957 9.956-.006 5.497-4.46 9.951-9.957 9.957ZM66.706 6.67 58.41 5.01l-.663 3.253 4.022.807-44.355 26.003 1.68 2.864L64.02 11.6l-.932 4.661 3.252.65 1.66-8.296a1.66 1.66 0 0 0-1.295-1.945ZM9.956 44.802H6.637v11.615h3.32V44.802ZM9.956 38.165H6.637v3.318h3.32v-3.318ZM92.924 21.57h-3.319v24.891h3.32v-24.89ZM92.924 14.934h-3.319v3.318h3.32v-3.318ZM41.484 94.582h-3.319v3.32h3.319v-3.32ZM48.121 94.582h-3.318v3.32h3.318v-3.32ZM54.759 94.582H51.44v3.32h3.319v-3.32Z" fill="#F09F0C"/></svg>