<svg width="100" height="100" fill="none" xmlns="http://www.w3.org/2000/svg"><g clip-path="url(#a)" fill="#F09F0C"><path d="m98.576 26.26-.003-.004-6.455-.921a1.66 1.66 0 0 1-.762-2.97l5.217-3.913a1.66 1.66 0 0 0 .332-2.323l-5.974-7.964a1.66 1.66 0 0 0-2.322-.332l-5.216 3.912a1.66 1.66 0 0 1-2.645-1.561l.923-6.455a1.66 1.66 0 0 0-1.407-1.878h-.002L70.412.444a1.66 1.66 0 0 0-1.878 1.406l-.922 6.456a1.66 1.66 0 0 1-2.97.761L60.73 3.85a1.66 1.66 0 0 0-2.324-.331L53.422 7.26c-2.256-.24-4.53-.24-6.786 0C31.862 8.95 20.277 20.73 18.836 35.53c-.044.47-.061.936-.084 1.402h-.498a1.66 1.66 0 0 0-1.623 1.327l-1.146 5.453-4.593-3.168a1.66 1.66 0 0 0-2.116.193l-4.978 4.978a1.66 1.66 0 0 0-.192 2.114l3.152 4.584-5.454 1.147A1.66 1.66 0 0 0 0 55.184v6.638c0 .784.55 1.462 1.317 1.624l5.455 1.147-3.153 4.584a1.66 1.66 0 0 0 .192 2.114L8.79 76.27a1.66 1.66 0 0 0 2.116.192l4.585-3.16 1.146 5.454a1.66 1.66 0 0 0 1.623 1.327h6.637a1.66 1.66 0 0 0 1.625-1.317l1.146-5.454 4.585 3.152a1.66 1.66 0 0 0 2.114-.192l2.577-2.585v4.728a6.616 6.616 0 0 0 3.318 5.715v9.22a6.637 6.637 0 0 0 6.637 6.636h6.638a6.637 6.637 0 0 0 6.637-6.637V84.13a6.616 6.616 0 0 0 3.319-5.715v-6.567a8.13 8.13 0 0 1 3.838-6.773 31.85 31.85 0 0 0 3.906-2.987l-2.214-2.472a28.244 28.244 0 0 1-3.496 2.673 11.43 11.43 0 0 0-5.353 9.559v6.568a3.318 3.318 0 0 1-3.319 3.318H43.58a3.318 3.318 0 0 1-3.319-3.319V71.71a11.163 11.163 0 0 0-5.263-9.365C21.847 54.08 17.884 36.72 26.148 23.57A28.124 28.124 0 0 1 49.86 10.408c-.024.06-.046.12-.064.18a1.66 1.66 0 0 0 .317 1.23l3.91 5.216c.413.533.453 1.266.1 1.841a1.65 1.65 0 0 1-1.66.799l-6.454-.923a1.66 1.66 0 0 0-1.878 1.407v.002l-1.409 9.854a1.66 1.66 0 0 0 1.407 1.878h.002l6.455.923a1.66 1.66 0 0 1 .761 2.97l-5.215 3.911a1.66 1.66 0 0 0-.332 2.323l5.974 7.965a1.66 1.66 0 0 0 2.323.332l5.216-3.911a1.66 1.66 0 0 1 2.637 1.561l-.92 6.455a1.66 1.66 0 0 0 1.406 1.878l9.857 1.41c.077.009.155.014.233.014a1.66 1.66 0 0 0 1.645-1.424l.92-6.454a1.66 1.66 0 0 1 2.97-.762l3.914 5.215a1.66 1.66 0 0 0 2.323.332l7.964-5.973a1.66 1.66 0 0 0 .332-2.323l-3.91-5.216a1.63 1.63 0 0 1-.1-1.842 1.611 1.611 0 0 1 1.659-.796l6.455.921a1.66 1.66 0 0 0 1.878-1.407l1.407-9.856a1.66 1.66 0 0 0-1.407-1.879ZM43.58 85.051h13.274v3.318H43.58v-3.318Zm0 6.637h13.274v1.66a3.319 3.319 0 0 1-3.318 3.318h-6.638a3.319 3.319 0 0 1-3.318-3.319v-1.66ZM30.37 63.074c.906.741 1.853 1.431 2.836 2.066a8.1 8.1 0 0 1 3.343 4.246L32.99 72.94l-3.446-2.376a3.319 3.319 0 0 0-5.13 2.049l-.87 4.143H19.6l-.87-4.136a3.319 3.319 0 0 0-5.13-2.05l-3.448 2.37-3.024-3.017 2.375-3.444a3.319 3.319 0 0 0-2.048-5.133l-4.136-.87v-3.943l4.136-.871a3.319 3.319 0 0 0 2.05-5.123l-2.377-3.454 3.024-3.017 3.45 2.376a3.319 3.319 0 0 0 5.128-2.05l.29-1.381a31.599 31.599 0 0 0 1.316 5.626c-5.46.651-9.358 5.605-8.707 11.065.651 5.46 5.605 9.358 11.065 8.707a9.956 9.956 0 0 0 7.676-5.336Zm-2.577-2.338a6.627 6.627 0 1 1-6.222-8.87h.063a31.426 31.426 0 0 0 6.16 8.87Zm67.723-24.86-4.812-.686a4.978 4.978 0 0 0-4.686 7.915l2.916 3.887-5.31 3.983-2.917-3.886a4.978 4.978 0 0 0-8.91 2.281l-.673 4.819-6.569-.94.687-4.812a4.978 4.978 0 0 0-7.915-4.687l-3.887 2.915-3.983-5.31 3.886-2.916a4.978 4.978 0 0 0-2.281-8.91l-4.812-.688.939-6.569 4.812.687a4.978 4.978 0 0 0 4.687-7.915l-2.925-3.891 5.31-3.982 2.917 3.887a4.978 4.978 0 0 0 8.91-2.281l.687-4.812 6.57.937-.687 4.812a4.978 4.978 0 0 0 7.914 4.686l3.888-2.915 3.982 5.31-3.887 2.917a4.978 4.978 0 0 0 2.281 8.91l4.812.687-.944 6.568Z"/><path d="M71.35 15.799c-7.331 0-13.274 5.943-13.274 13.274 0 7.331 5.943 13.275 13.274 13.275 7.331 0 13.275-5.944 13.275-13.275-.009-7.328-5.947-13.266-13.275-13.274Zm0 23.23c-5.498 0-9.956-4.457-9.956-9.956 0-5.498 4.458-9.956 9.956-9.956 5.499 0 9.956 4.458 9.956 9.956-.007 5.496-4.46 9.95-9.956 9.956ZM51.877 73.436h-3.32v4.978h3.32v-4.978ZM42.96 57.14c-10.244-4-15.304-15.548-11.302-25.791a19.913 19.913 0 0 1 7.94-9.606l-1.774-2.808c-10.855 6.839-14.111 21.182-7.273 32.037a23.23 23.23 0 0 0 11.204 9.256 10.593 10.593 0 0 1 6.803 9.89h3.319a13.884 13.884 0 0 0-8.918-12.977ZM93.36 61.821H81.743v3.319h11.615V61.82ZM81.147 70.501l-2.124 2.55 9.956 8.295 2.124-2.55-9.956-8.295ZM75.107 75.096h-3.319V86.71h3.319V75.096ZM14.968 25.365 1.694 28.683l.805 3.218 13.273-3.318-.804-3.218ZM6.378 9.035l-1.927 2.699 11.614 8.295 1.928-2.698L6.378 9.035ZM21.883.013l-3.215.822L22.06 14.11l3.215-.822L21.883.013Z"/></g><defs><clipPath id="a"><path fill="#fff" d="M0 0h100v100H0z"/></clipPath></defs></svg>