<svg width="100" height="100" fill="none" xmlns="http://www.w3.org/2000/svg"><g clip-path="url(#a)" fill="#F09F0C"><path d="M31.679 56.695c-2.665 0-4.83-1.998-4.997-4.663 6.33-2.665 10.16-8.994 9.994-15.823v-1.166c0-8.328-6.663-14.99-14.99-14.99H1.698c-1 0-1.666.666-1.666 1.665 0 3.831 1.5 7.495 3.997 10.16-.333 1.666-.666 3.165-.666 4.83 0 6.663 3.998 12.659 9.994 15.324-.167 2.665-2.332 4.663-4.997 4.663-4.664 0-8.328 3.664-8.328 8.328v33.311C.033 99.334.7 100 1.7 100H38.34c1 0 1.666-.666 1.666-1.666V65.023c0-4.664-3.665-8.328-8.328-8.328ZM3.53 23.384h18.154c5.83 0 10.66 4.33 11.493 9.993H15.023c-5.83 0-10.66-4.33-11.492-9.993Zm3.164 13.324c0-.832 0-1.665.167-2.331 2.498 1.499 5.33 2.331 8.161 2.331h18.321c0 5.663-3.497 10.66-8.827 12.492-.666.167-1.166.833-1.166 1.5v.998c0 2.166.833 4.33 2.498 5.996l-4.33.667H18.52l-4.33-.666c1.665-1.5 2.498-3.665 2.498-5.997v-.832c0-.667-.5-1.333-1.166-1.5-5.33-1.998-8.828-6.995-8.828-12.658Zm16.656 44.47-3.331 3.166-3.165-3.165 2.998-19.487h.5l2.998 19.487ZM3.364 65.024c0-2.665 2.165-4.997 4.83-4.997l8.162 1.333-3.165 19.986c0 .5.167 1 .5 1.5l4.996 4.996c.667.666 1.666.666 2.332 0l4.997-4.996c.333-.334.5-.833.5-1.5L23.35 61.36l8.161-1.333c2.665 0 4.83 2.332 4.83 4.997v24.983H3.364V65.023Zm33.312 31.646H3.364v-3.331h33.312v3.33Z"/><path d="M93.305 13.39H85.81l-1.832-2.83c-.833-1.333-2.499-2.166-4.164-2.166h-3.665c-.832 0-1.499-.5-1.665-1.333-1.666-5.33-7.162-8.16-12.492-6.662a10.238 10.238 0 0 0-6.662 6.662c-.167.667-.833 1.333-1.666 1.333H50c-1.666 0-3.165.833-4.164 2.165l-1.666 2.832h-7.495c-3.664 0-6.662 2.998-6.662 6.662h3.331a3.34 3.34 0 0 1 3.331-3.331h5.33c-.999 1.499-.333 3.664 1.166 4.497.5.333 1.166.5 1.666.5H85.31a3.34 3.34 0 0 0 3.331-3.332c0-.666-.166-1.166-.5-1.665h5.164a3.34 3.34 0 0 1 3.33 3.33v73.286a3.34 3.34 0 0 1-3.33 3.33H43.338V100h49.967c3.664 0 6.662-2.998 6.662-6.662V20.053c0-3.664-2.998-6.662-6.662-6.662Zm-48.468 4.997 3.83-5.996c.334-.333.833-.666 1.5-.666h3.664c2.165 0 4.164-1.499 4.83-3.664 1.166-3.498 4.83-5.497 8.328-4.33 2.165.666 3.664 2.331 4.33 4.33.666 2.165 2.665 3.664 4.83 3.664h3.665c.5 0 .999.333 1.332.666l3.997 5.996H44.837Z"/><path d="M66.656 6.729h-3.332v3.33h3.332V6.73ZM57.828 41.206l-2.332-2.332-3.83 3.83-3.831-3.83-2.332 2.332 3.83 3.83-3.83 3.831 2.332 2.332 3.83-3.83 3.831 3.83 2.332-2.332-3.83-3.83 3.83-3.831ZM76.15 74.517l-2.332-2.332-3.831 3.83-3.831-3.83-2.332 2.332 3.831 3.83-3.83 3.831 2.331 2.332 3.83-3.83 3.832 3.83 2.331-2.332-3.83-3.83 3.83-3.831Z"/><path d="M77.815 47.202c-.666-.666-1.666-.666-2.332 0l-6.662 6.662 2.332 2.332 3.83-3.83v3.497a7.464 7.464 0 0 1-7.495 7.495 10.805 10.805 0 0 0-10.826 10.826v1.666a7.464 7.464 0 0 1-7.495 7.495h-4.164v3.33h4.164c5.996 0 10.826-4.83 10.826-10.825v-1.666a7.464 7.464 0 0 1 7.495-7.495c5.996 0 10.827-4.83 10.827-10.826v-3.498l3.83 3.83 2.332-2.33-6.662-6.663ZM87.808 28.048l-2.332-2.499-2.165 2.166c-3.997-3.665-10.326-3.331-13.99.832-3.665 4.164-3.332 10.327.832 13.991 4.164 3.664 10.327 3.331 13.991-.833 2.831-3.164 3.331-7.661 1.332-11.325l2.332-2.332ZM76.65 41.705c-3.664 0-6.662-2.998-6.662-6.662 0-3.664 2.998-6.662 6.662-6.662 1.666 0 3.165.666 4.33 1.665l-4.33 4.33-2.165-2.164-2.332 2.331 3.331 3.332c.666.666 1.666.666 2.332 0l4.997-4.997c.333.666.5 1.332.5 2.165 0 3.664-2.999 6.662-6.663 6.662ZM31.679 68.355h-4.997v3.33h4.997v-3.33Z"/><path d="M89.974 21.719v68.288H43.337v3.331h48.301c1 0 1.666-.666 1.666-1.666V21.72h-3.332Z"/></g><defs><clipPath id="a"><path fill="#fff" d="M0 0h100v100H0z"/></clipPath></defs></svg>