<svg width="69" height="69" fill="none" xmlns="http://www.w3.org/2000/svg"><g clip-path="url(#a)"><path d="M29.164 50.84c1.691 0 3.25.852 4.168 2.277a.134.134 0 0 0 .213.016 7.255 7.255 0 0 1 5.432-2.452c.707 0 1.39.104 2.036.294l-2.386-6.117h-8.443l-2.412 6.183c.442-.13.909-.2 1.392-.2Z" fill="#D9EAFC"/><path d="M31.285 44.858h-1.1l-2.413 6.183c.376-.11.77-.174 1.176-.192l2.337-5.99Z" fill="#AEC1ED"/><path d="M26.596 57.16a.134.134 0 0 0 .153.113 8.98 8.98 0 0 1 7.566 2.304.133.133 0 0 0 .182 0 8.98 8.98 0 0 1 7.566-2.304.133.133 0 0 0 .153-.113 11.064 11.064 0 0 1 1.812-4.612 7.356 7.356 0 0 0-5.051-2c-2.203 0-4.18.966-5.532 2.496a5.085 5.085 0 0 0-4.281-2.337 5.083 5.083 0 0 0-4.166 2.168 11.059 11.059 0 0 1 1.598 4.286Z" fill="#AEC1ED"/><path d="M26.728 57.141c-.805-5.416-5.473-9.572-11.113-9.572a11.224 11.224 0 0 0-9.374 5.04 32.904 32.904 0 0 0 12.882 12.244 9.15 9.15 0 0 1 7.605-7.712Z" fill="#445EA0"/><path d="M16.737 48.95c2.865 0 5.492 1.017 7.544 2.707a11.21 11.21 0 0 0-8.666-4.088 11.224 11.224 0 0 0-9.374 5.04c.266.447.543.886.829 1.318a11.864 11.864 0 0 1 9.667-4.976Z" fill="#293D7C"/><path d="M53.197 47.57c-5.64 0-10.309 4.155-11.114 9.571a9.15 9.15 0 0 1 7.605 7.712A32.905 32.905 0 0 0 62.57 52.61a11.224 11.224 0 0 0-9.373-5.04Z" fill="#445EA0"/><path d="M53.876 47.59c-.224-.013-.451-.02-.68-.02-5.64 0-10.308 4.155-11.113 9.571.42.067.829.164 1.227.285 1.118-5.118 5.322-9.08 10.566-9.836Z" fill="#293D7C"/><path d="M40.638 57.025a9.112 9.112 0 0 0-6.232 2.455 9.112 9.112 0 0 0-6.233-2.455c-4.604 0-8.412 3.403-9.05 7.83a32.61 32.61 0 0 0 15.283 3.779 32.61 32.61 0 0 0 15.283-3.78c-.639-4.426-4.447-7.829-9.051-7.829Z" fill="#293D7C"/><path d="M30.085 58.162c1.262 0 2.465.245 3.567.69a9.098 9.098 0 0 0-5.479-1.827c-4.604 0-8.412 3.402-9.05 7.83.537.283 1.084.553 1.64.807.936-4.288 4.752-7.5 9.322-7.5Z" fill="#1A2B63"/><path d="M37.418 44.858h-2.022l.258 2.04a1.003 1.003 0 0 0 1.99-.25l-.226-1.79ZM31.393 44.858l-.53 4.196a1.003 1.003 0 0 0 1.99.252l.562-4.448h-2.021Z" fill="#AEC1ED"/><path d="M24.125 26.346c0-1.09.04-2.178.117-3.258-3.217 1.812-5.433 5.848-5.433 10.52 0 2.468.614 4.82 1.774 6.805a.592.592 0 0 0 .735.25 13.013 13.013 0 0 1 4.846-.958c-1.335-4.108-2.04-8.697-2.04-13.36Z" fill="#FE3745"/><path d="M20.325 33.608c0-3.86 1.513-7.282 3.852-9.378.018-.382.039-.762.065-1.142-3.216 1.812-5.433 5.848-5.433 10.52 0 2.468.614 4.82 1.774 6.805a.592.592 0 0 0 .735.25c.252-.103.507-.195.764-.281-1.15-1.978-1.757-4.32-1.757-6.774Z" fill="#B7092B"/><path d="M44.569 23.088c.076 1.08.117 2.167.117 3.258 0 4.662-.704 9.25-2.039 13.359 1.69.013 3.32.334 4.846.957a.59.59 0 0 0 .734-.249c1.161-1.984 1.775-4.337 1.775-6.805 0-4.672-2.216-8.708-5.433-10.52ZM29.286 41.241v3.083c0 .367.3.668.668.668h8.903a.67.67 0 0 0 .668-.668V41.24h-10.24Z" fill="#FE3745"/><path d="M31.56 44.324V41.24h-2.274v3.083c0 .367.3.668.668.668h2.274a.67.67 0 0 1-.668-.668Z" fill="#B7092B"/><path d="M42.542 12.253H26.269c-1.491 4.3-2.278 9.138-2.278 14.093 0 5.15.854 10.213 2.47 14.64a.592.592 0 0 0 .556.389h14.777c.248 0 .47-.156.556-.389 1.616-4.427 2.47-9.49 2.47-14.64 0-4.955-.787-9.794-2.278-14.093Z" fill="#EEF6FF"/><path d="M28.356 40.986c-1.616-4.427-2.47-9.49-2.47-14.64 0-4.955.787-9.794 2.278-14.093H26.27c-1.491 4.3-2.278 9.138-2.278 14.093 0 5.15.855 10.213 2.47 14.64a.592.592 0 0 0 .556.389h1.895a.592.592 0 0 1-.556-.389Z" fill="#D9EAFC"/><path d="M30.552 12.253v2.22c0 .367.301.668.669.668h6.37a.67.67 0 0 0 .668-.669v-2.219h-7.707Z" fill="#EA2A3D"/><path d="M32.068 14.472v-2.219h-1.516v2.22c0 .367.301.668.669.668h1.516a.67.67 0 0 1-.669-.669Z" fill="#B7092B"/><path d="M34.406.178a.591.591 0 0 0-.373.132c-2.986 2.418-5.502 6.087-7.275 10.61-.188.48-.365.971-.535 1.467h16.365c-.17-.496-.347-.986-.535-1.468C40.28 6.397 37.765 2.73 34.778.31a.59.59 0 0 0-.372-.131Z" fill="#FE3745"/><path d="M35.353.797c-.19-.168-.381-.33-.575-.487a.591.591 0 0 0-.745 0c-2.986 2.418-5.502 6.087-7.275 10.61-.188.48-.365.971-.535 1.467h1.895c.17-.496.347-.986.535-1.468 1.658-4.229 3.965-7.71 6.7-10.122Z" fill="#B7092B"/><path d="M34.406 31.19a6.822 6.822 0 1 0 0-13.643 6.822 6.822 0 0 0 0 13.643Z" fill="#445EA0"/><path d="M34.406 28.745a4.376 4.376 0 1 0 0-8.753 4.376 4.376 0 0 0 0 8.753Z" fill="#69CDFF"/><path d="M31.634 24.369a4.377 4.377 0 0 0 3.574 4.302 4.376 4.376 0 1 1 0-8.603 4.376 4.376 0 0 0-3.574 4.3Z" fill="#52BBEF"/><path d="M14.903 24.075a.38.38 0 0 1-.35-.234c-.747-1.802-1.297-2.352-3.1-3.099a.379.379 0 0 1 0-.7c1.803-.747 2.353-1.297 3.1-3.1a.38.38 0 0 1 .7 0c.747 1.803 1.297 2.353 3.1 3.1a.38.38 0 0 1 0 .7c-1.803.747-2.353 1.297-3.1 3.1a.38.38 0 0 1-.35.233Z" fill="#FFD00D"/><path d="M15.31 23.083c-.746-1.802-1.296-2.352-3.098-3.099a.378.378 0 0 1-.198-.189c-.173.081-.357.163-.56.247a.379.379 0 0 0 0 .7c1.802.747 2.352 1.297 3.099 3.1a.38.38 0 0 0 .7 0c.084-.203.166-.388.247-.56a.38.38 0 0 1-.19-.199Z" fill="#FFAF10"/><path d="M55.192 27.106a.333.333 0 0 1-.308-.206c-.656-1.584-1.14-2.067-2.724-2.723a.333.333 0 0 1 0-.616c1.585-.657 2.068-1.14 2.724-2.724a.333.333 0 0 1 .616 0c.656 1.584 1.14 2.067 2.724 2.724a.333.333 0 0 1 0 .616c-1.584.656-2.068 1.14-2.724 2.723a.333.333 0 0 1-.308.206Z" fill="#fff"/><path d="M55.55 26.234c-.656-1.584-1.14-2.068-2.723-2.724a.333.333 0 0 1-.174-.166 12.03 12.03 0 0 1-.493.217.333.333 0 0 0 0 .616c1.585.656 2.068 1.14 2.724 2.723a.333.333 0 0 0 .616 0c.074-.178.145-.34.217-.492a.333.333 0 0 1-.166-.174Z" fill="#D9EAFC"/><path d="M51.716 13.023a.389.389 0 0 1-.359-.24c-.764-1.846-1.328-2.41-3.174-3.174a.388.388 0 0 1 0-.718c1.846-.764 2.41-1.328 3.174-3.174a.389.389 0 0 1 .718 0c.764 1.846 1.328 2.41 3.174 3.174a.388.388 0 0 1 0 .718c-1.846.764-2.41 1.328-3.174 3.174a.388.388 0 0 1-.359.24Z" fill="#FF9518"/><path d="M52.133 12.007c-.764-1.846-1.328-2.41-3.174-3.174a.388.388 0 0 1-.202-.194c-.177.083-.366.166-.574.252a.388.388 0 0 0 0 .718c1.846.764 2.41 1.328 3.174 3.174a.388.388 0 0 0 .718 0c.086-.208.169-.397.252-.574a.388.388 0 0 1-.194-.202Z" fill="#EF8318"/></g><defs><clipPath id="a"><path fill="#fff" transform="translate(.178 .178)" d="M0 0h68.456v68.456H0z"/></clipPath></defs></svg>