<svg aria-hidden="true" style="position:absolute;width:0;height:0;overflow:hidden" xmlns="http://www.w3.org/2000/svg"><defs><symbol id="icon-icon-project" viewBox="0 0 32 32"><path fill="#d9eafc" style="fill:var(--color1, #d9eafc)" d="M13.525 23.578c.784 0 1.507.395 1.933 1.056.011.017.03.028.052.028a.064.064 0 0 0 .047-.021 3.36 3.36 0 0 1 2.519-1.137c.328 0 .645.048.944.136l-1.107-2.837h-3.916l-1.119 2.867c.205-.06.422-.093.646-.093z"/><path fill="#aec1ed" style="fill:var(--color2, #aec1ed)" d="M14.509 20.804h-.51l-1.119 2.867c.174-.051.357-.081.545-.089l1.084-2.778z"/><path fill="#aec1ed" style="fill:var(--color2, #aec1ed)" d="M12.334 26.509c.005.03.03.053.062.053l.01-.001a4.151 4.151 0 0 1 3.511 1.071l-.002-.002c.011.01.026.017.042.017s.031-.006.042-.017a4.148 4.148 0 0 1 3.533-1.065l-.024-.003.01.001a.062.062 0 0 0 .061-.053c.124-.81.421-1.533.852-2.156l-.011.017a3.401 3.401 0 0 0-2.338-.928h-.004a3.414 3.414 0 0 0-2.566 1.158 2.36 2.36 0 0 0-1.984-1.084h-.002c-.796 0-1.499.394-1.926.998l-.005.007a5.05 5.05 0 0 1 .737 1.959l.004.029z"/><path fill="#445ea0" style="fill:var(--color3, #445ea0)" d="M12.396 26.5a5.212 5.212 0 0 0-5.154-4.439h-.003a5.201 5.201 0 0 0-4.332 2.318l-.012.019a15.373 15.373 0 0 0 5.893 5.638l.081.04a4.253 4.253 0 0 1 3.502-3.573l.025-.003z"/><path fill="#293d7c" style="fill:var(--color4, #293d7c)" d="M7.762 22.701a5.49 5.49 0 0 1 3.499 1.255 5.196 5.196 0 0 0-4.015-1.896h-.007a5.201 5.201 0 0 0-4.332 2.318l-.012.019c.123.207.252.411.384.611a5.502 5.502 0 0 1 4.48-2.308h.004z"/><path fill="#445ea0" style="fill:var(--color3, #445ea0)" d="M24.671 22.061a5.212 5.212 0 0 0-5.154 4.439 4.253 4.253 0 0 1 3.524 3.553l.003.023c2.497-1.339 4.522-3.269 5.936-5.61l.038-.068a5.207 5.207 0 0 0-4.344-2.337h-.003z"/><path fill="#293d7c" style="fill:var(--color4, #293d7c)" d="M24.986 22.071a5.212 5.212 0 0 0-5.469 4.43c.195.031.384.076.569.132a5.887 5.887 0 0 1 4.9-4.562z"/><path fill="#293d7c" style="fill:var(--color4, #293d7c)" d="M18.847 26.446h-.005a4.21 4.21 0 0 0-2.888 1.141l.002-.002a4.211 4.211 0 0 0-2.886-1.139h-.005a4.242 4.242 0 0 0-4.197 3.631c2.048 1.104 4.481 1.753 7.067 1.753h.022-.001.02c2.586 0 5.02-.649 7.148-1.793l-.081.04a4.242 4.242 0 0 0-4.198-3.631z"/><path fill="#1a2b63" style="fill:var(--color5, #1a2b63)" d="M13.952 26.974c.585 0 1.143.114 1.654.32a4.19 4.19 0 0 0-2.536-.847h-.005a4.242 4.242 0 0 0-4.197 3.631c.249.131.503.256.761.374a4.426 4.426 0 0 1 4.323-3.478z"/><path fill="#aec1ed" style="fill:var(--color2, #aec1ed)" d="M17.353 20.804h-.938l.12.946a.465.465 0 0 0 .922-.118v.002l-.105-.83zm-2.794 0-.246 1.946a.465.465 0 0 0 .923.12v-.002l.261-2.063h-.937z"/><path fill="#fe3745" style="fill:var(--color6, #fe3745)" d="M11.188 12.218c0-.505.019-1.01.054-1.511-1.492.84-2.52 2.712-2.52 4.879 0 1.145.285 2.235.823 3.156a.275.275 0 0 0 .342.115l-.002.001a5.916 5.916 0 0 1 2.246-.444h.001c-.619-1.905-.946-4.033-.946-6.196z"/><path fill="#b7092b" style="fill:var(--color7, #b7092b)" d="M9.426 15.586c0-1.79.702-3.377 1.786-4.349.008-.177.018-.353.03-.53-1.491.84-2.52 2.712-2.52 4.879 0 1.145.285 2.235.823 3.156a.275.275 0 0 0 .342.115l-.002.001c.117-.048.235-.09.354-.13-.533-.917-.815-2.003-.815-3.142z"/><path fill="#fe3745" style="fill:var(--color6, #fe3745)" d="M20.67 10.707c.035.501.054 1.005.054 1.511 0 2.162-.326 4.29-.946 6.195.784.006 1.54.155 2.247.444a.274.274 0 0 0 .34-.115l.001-.001c.538-.92.823-2.011.823-3.156 0-2.167-1.028-4.038-2.52-4.879zm-7.088 8.419v1.43c0 .17.139.31.31.31h4.129a.312.312 0 0 0 .31-.31v-1.43h-4.749z"/><path fill="#b7092b" style="fill:var(--color7, #b7092b)" d="M14.637 20.556v-1.43h-1.055v1.43c0 .17.139.31.31.31h1.055a.312.312 0 0 1-.31-.31z"/><path fill="#eef6ff" style="fill:var(--color8, #eef6ff)" d="M19.73 5.683h-7.547c-.691 1.994-1.056 4.238-1.056 6.536 0 2.388.396 4.736 1.146 6.79.04.106.14.18.258.18h6.853a.276.276 0 0 0 .258-.18c.749-2.053 1.145-4.401 1.145-6.79 0-2.298-.365-4.542-1.056-6.536z"/><path fill="#d9eafc" style="fill:var(--color1, #d9eafc)" d="M13.151 19.008c-.749-2.053-1.146-4.401-1.146-6.79 0-2.298.365-4.542 1.056-6.536h-.878c-.691 1.994-1.056 4.238-1.056 6.536 0 2.388.397 4.736 1.146 6.79.04.106.14.18.258.18h.879a.274.274 0 0 1-.257-.178l-.001-.002z"/><path fill="#ea2a3d" style="fill:var(--color9, #ea2a3d)" d="M14.169 5.683v1.03c0 .17.14.31.31.31h2.954a.31.31 0 0 0 .31-.31V5.684h-3.574z"/><path fill="#b7092b" style="fill:var(--color7, #b7092b)" d="M14.872 6.712V5.683h-.703v1.03c0 .17.14.31.31.31h.703a.31.31 0 0 1-.31-.31z"/><path fill="#fe3745" style="fill:var(--color6, #fe3745)" d="M15.956.083a.27.27 0 0 0-.173.062h.001c-1.385 1.121-2.552 2.823-3.374 4.921-.087.223-.169.45-.248.68h7.59c-.079-.23-.161-.457-.248-.681-.822-2.097-1.989-3.798-3.374-4.92a.273.273 0 0 0-.172-.061h-.001z"/><path fill="#b7092b" style="fill:var(--color7, #b7092b)" d="M16.396.37a7.985 7.985 0 0 0-.267-.226.274.274 0 0 0-.346.001h.001c-1.385 1.121-2.552 2.823-3.374 4.921-.087.223-.169.45-.248.68h.879c.079-.23.161-.457.248-.681.769-1.961 1.839-3.576 3.107-4.694z"/><path fill="#445ea0" style="fill:var(--color3, #445ea0)" d="M15.956 14.465h.038a3.164 3.164 0 1 0 0-6.328h-.04.002a3.165 3.165 0 0 0-.003 6.328h.002z"/><path fill="#69cdff" style="fill:var(--color10, #69cdff)" d="M15.956 13.331a2.03 2.03 0 0 0 0-4.06 2.03 2.03 0 0 0 0 4.06z"/><path fill="#52bbef" style="fill:var(--color11, #52bbef)" d="M14.671 11.302a2.03 2.03 0 0 0 1.645 1.993l.013.002a2.03 2.03 0 1 1 .013-3.986l-.013-.002a2.034 2.034 0 0 0-1.658 1.994z"/><path fill="#ffd00d" style="fill:var(--color12, #ffd00d)" d="M6.912 11.165a.176.176 0 0 1-.162-.107v-.001c-.346-.836-.601-1.091-1.438-1.437a.176.176 0 0 1-.001-.324h.001c.836-.346 1.091-.601 1.438-1.438a.176.176 0 0 1 .324-.002v.001c.346.836.601 1.091 1.438 1.438a.176.176 0 0 1 .002.324h-.001c-.836.346-1.091.601-1.438 1.438a.176.176 0 0 1-.162.108z"/><path fill="#ffaf10" style="fill:var(--color13, #ffaf10)" d="M7.1 10.705c-.346-.836-.601-1.091-1.437-1.437a.172.172 0 0 1-.091-.087V9.18c-.08.038-.166.076-.26.115a.176.176 0 0 0-.001.324h.001c.836.346 1.091.601 1.437 1.438a.176.176 0 0 0 .324.002v-.001c.039-.094.077-.18.115-.26a.177.177 0 0 1-.088-.091v-.001z"/><path fill="#fff" style="fill:var(--color14, #fff)" d="M25.596 12.571a.153.153 0 0 1-.142-.095v-.001c-.304-.735-.529-.959-1.263-1.263-.057-.024-.096-.079-.096-.143s.039-.119.095-.142h.001c.735-.305.959-.529 1.263-1.263.024-.057.079-.096.143-.096s.119.039.142.095v.001c.304.735.529.959 1.263 1.263.057.024.096.079.096.143s-.039.119-.095.142h-.001c-.735.304-.959.529-1.263 1.263a.155.155 0 0 1-.143.096z"/><path fill="#d9eafc" style="fill:var(--color1, #d9eafc)" d="M25.762 12.166c-.304-.735-.529-.959-1.263-1.263a.152.152 0 0 1-.08-.076v-.001a3.29 3.29 0 0 1-.192.087l-.037.014c-.057.024-.096.079-.096.143s.039.119.095.142h.001c.735.304.959.529 1.263 1.263.024.057.079.096.143.096s.119-.039.142-.095v-.001c.034-.083.067-.158.101-.228a.158.158 0 0 1-.077-.08v-.001z"/><path fill="#ff9518" style="fill:var(--color15, #ff9518)" d="M23.984 6.04a.179.179 0 0 1-.166-.11v-.001c-.354-.856-.616-1.118-1.472-1.472a.18.18 0 0 1-.002-.333h.001c.856-.354 1.118-.616 1.472-1.472a.18.18 0 0 1 .332-.001v.001c.354.856.616 1.118 1.472 1.472a.18.18 0 0 1 .002.333h-.001c-.856.354-1.118.616-1.472 1.472a.18.18 0 0 1-.166.111z"/><path fill="#ef8318" style="fill:var(--color16, #ef8318)" d="M24.178 5.568c-.354-.856-.616-1.118-1.472-1.472a.18.18 0 0 1-.093-.089v-.001c-.082.038-.17.077-.266.117a.18.18 0 0 0-.002.333h.001c.856.354 1.118.616 1.472 1.472.028.066.092.112.166.112s.139-.046.166-.111v-.001c.04-.096.078-.184.117-.266a.181.181 0 0 1-.09-.093v-.001z"/></symbol><symbol id="icon-icon-strategy" viewBox="0 0 32 32"><path fill="#f09f0c" style="fill:var(--color17, #f09f0c)" d="m31.544 8.403-.001-.001-2.066-.295a.532.532 0 0 1-.245-.95l.001-.001 1.669-1.252a.53.53 0 0 0 .105-.745l.001.001-1.912-2.548a.533.533 0 0 0-.745-.105l.001-.001-1.669 1.252a.53.53 0 0 1-.846-.502v.003l.295-2.066a.53.53 0 0 0-.448-.6h-.004l-3.152-.45a.53.53 0 0 0-.6.447v.003l-.295 2.066a.532.532 0 0 1-.95.245l-.001-.001-1.252-1.669a.533.533 0 0 0-.745-.105l.001-.001-1.595 1.197a10.24 10.24 0 0 0-2.172 0 10.089 10.089 0 0 0-8.896 9.046c-.014.15-.02.3-.027.449h-.159a.533.533 0 0 0-.519.421l-.001.003-.367 1.745-1.47-1.014a.526.526 0 0 0-.677.062L1.21 14.63a.53.53 0 0 0-.06.678l-.001-.002 1.009 1.467-1.745.367a.532.532 0 0 0-.417.519v2.125c0 .251.176.468.421.52l1.746.367-1.009 1.467a.53.53 0 0 0 .061.676l1.593 1.593a.53.53 0 0 0 .678.06l-.002.001 1.467-1.011.367 1.745a.532.532 0 0 0 .519.425h2.124a.531.531 0 0 0 .519-.418l.001-.003.367-1.745 1.467 1.009a.53.53 0 0 0 .676-.061l.825-.827v1.513a2.116 2.116 0 0 0 1.052 1.823l.01.005v2.95c0 1.173.951 2.124 2.124 2.124h2.124a2.124 2.124 0 0 0 2.124-2.124v-2.95a2.118 2.118 0 0 0 1.062-1.828v-2.102a2.601 2.601 0 0 1 1.217-2.161l.011-.006c.469-.307.877-.621 1.259-.964l-.009.008-.708-.791c-.333.3-.699.581-1.084.834l-.034.021a3.661 3.661 0 0 0-1.713 3.057V25.095c0 .586-.475 1.062-1.062 1.062h-4.248a1.062 1.062 0 0 1-1.062-1.062v-2.146a3.57 3.57 0 0 0-1.669-2.988l-.015-.009A9 9 0 0 1 8.363 7.544c1.613-2.538 4.405-4.2 7.586-4.212h.002a.397.397 0 0 0-.02.058.528.528 0 0 0 .103.395l-.001-.001 1.251 1.669a.519.519 0 0 1 .032.589.528.528 0 0 1-.534.255h.003l-2.065-.295a.53.53 0 0 0-.6.448v.004l-.451 3.153a.53.53 0 0 0 .448.6h.004l2.066.295a.532.532 0 0 1 .245.95l-.001.001-1.669 1.252a.53.53 0 0 0-.105.745l-.001-.001 1.912 2.549a.533.533 0 0 0 .745.105l-.001.001 1.669-1.252a.531.531 0 0 1 .843.502v-.003l-.294 2.066a.53.53 0 0 0 .447.6h.003l3.154.451c.025.003.05.004.075.004h.001a.53.53 0 0 0 .525-.453v-.003l.294-2.065a.532.532 0 0 1 .95-.245l.001.001 1.252 1.669a.53.53 0 0 0 .745.105l-.001.001 2.548-1.911a.53.53 0 0 0 .105-.745l.001.001-1.251-1.669a.521.521 0 0 1-.031-.592l-.001.002a.515.515 0 0 1 .533-.254h-.003l2.066.295a.53.53 0 0 0 .6-.448v-.003l.45-3.154a.53.53 0 0 0-.448-.6h-.003zM13.946 27.216h4.248v1.062h-4.248v-1.062zm0 2.124h4.248v.531c0 .586-.475 1.062-1.062 1.062h-2.124a1.063 1.063 0 0 1-1.062-1.062v-.531zm-4.228-9.156c.29.237.593.458.908.661.496.317.872.786 1.064 1.341l.005.018-1.139 1.137-1.103-.76a1.063 1.063 0 0 0-1.64.649l-.001.007-.278 1.326H6.272l-.278-1.324a1.064 1.064 0 0 0-1.645-.653l.003-.002-1.103.758-.968-.965.76-1.102a1.062 1.062 0 0 0-.648-1.641l-.007-.001-1.324-.278v-1.262l1.324-.279a1.064 1.064 0 0 0 .654-1.643l.002.004-.761-1.105.968-.965 1.104.76a1.063 1.063 0 0 0 1.64-.649l.001-.007.093-.442c.096.68.243 1.288.442 1.872l-.021-.071a3.186 3.186 0 1 0 3.203 4.637l.008-.018zm-.824-.748a2.125 2.125 0 0 1-1.995 1.403 2.12 2.12 0 1 1 0-4.242h.025a10.095 10.095 0 0 0 1.972 2.839l-.001-.001zm21.671-7.956-1.54-.22a1.593 1.593 0 0 0-1.496 2.537l-.003-.004.933 1.244-1.699 1.275-.933-1.244a1.592 1.592 0 0 0-2.85.721l-.001.009-.215 1.542-2.102-.301.22-1.54a1.593 1.593 0 0 0-2.537-1.497l.004-.003-1.244.933-1.275-1.699 1.244-.933a1.592 1.592 0 0 0-.721-2.85l-.009-.001-1.54-.22.3-2.102 1.54.22a1.593 1.593 0 0 0 1.497-2.537l.003.004-.936-1.245 1.699-1.274.933 1.244a1.592 1.592 0 0 0 2.85-.721l.001-.009.22-1.54 2.102.3-.22 1.54a1.593 1.593 0 0 0 2.536 1.497l-.004.003 1.244-.933 1.274 1.699-1.244.933a1.592 1.592 0 0 0 .721 2.85l.009.001 1.54.22-.302 2.102z"/><path fill="#f09f0c" style="fill:var(--color17, #f09f0c)" d="M22.832 5.056a4.248 4.248 0 1 0 0 8.496 4.248 4.248 0 0 0 0-8.496zm0 7.433a3.186 3.186 0 1 1 0-6.372 3.186 3.186 0 0 1 0 6.372zM16.601 23.5h-1.062v1.593h1.062V23.5zm-2.854-5.215a6.371 6.371 0 0 1-3.617-8.253 6.42 6.42 0 0 1 2.515-3.059l.026-.015-.568-.899a7.433 7.433 0 0 0-2.327 10.252 7.48 7.48 0 0 0 3.535 2.944l.05.018a3.396 3.396 0 0 1 2.177 3.165H16.6v-.004a4.447 4.447 0 0 0-2.824-4.139l-.03-.01zm16.128 1.498h-3.717v1.062h3.717v-1.062zm-3.908 2.777-.68.816 3.186 2.654.68-.816-3.186-2.654zm-1.933 1.471h-1.062v3.716h1.062v-3.716zM4.79 8.117.542 9.179l.258 1.03 4.247-1.062-.257-1.03zM2.041 2.891l-.617.864L5.14 6.409l.617-.863L2.04 2.891zM7.003.004 5.974.267l1.085 4.248 1.029-.263L7.003.004z"/></symbol><symbol id="icon-icon-instruments" viewBox="0 0 32 32"><path fill="#f09f0c" style="fill:var(--color17, #f09f0c)" d="M31.544 21.932h-.001v-.002l-2.065-.294a.533.533 0 0 1-.246-.95l.001-.001.677-.507h1.417a.531.531 0 0 0 .531-.531V.531A.531.531 0 0 0 31.327 0H.53a.531.531 0 0 0-.531.531v19.116c0 .293.238.531.531.531h1.373l-.686.686a.53.53 0 0 0-.06.678l-.001-.002 1.009 1.468-1.745.366a.532.532 0 0 0-.42.519v2.124c0 .251.176.468.422.52l1.745.367-1.009 1.467a.529.529 0 0 0 .062.676l1.593 1.593a.53.53 0 0 0 .678.06l-.002.001 1.467-1.009.367 1.746a.532.532 0 0 0 .518.419h2.124a.532.532 0 0 0 .519-.418l.001-.003.367-1.746 1.467 1.012a.53.53 0 0 0 .676-.061l1.593-1.593a.53.53 0 0 0 .06-.678l.001.002-1.009-1.468 1.745-.366a.531.531 0 0 0 .42-.519v-2.124a.532.532 0 0 0-.418-.519l-.004-.001-1.746-.367 1.009-1.467a.53.53 0 0 0-.061-.676l-.685-.686h2.192l-.425 2.955a.53.53 0 0 0 .454.602h.003l2.065.295a.533.533 0 0 1 .246.95l-.001.001-1.672 1.25a.53.53 0 0 0-.105.745l-.001-.001 1.912 2.549a.53.53 0 0 0 .745.105l-.001.001 1.669-1.252a.531.531 0 0 1 .844.503v-.003l-.295 2.065a.53.53 0 0 0 .448.6h.004l3.154.45a.53.53 0 0 0 .6-.448v-.003l.295-2.065a.532.532 0 0 1 .95-.245l.001.001 1.252 1.669a.533.533 0 0 0 .745.105l-.001.001 2.549-1.911a.53.53 0 0 0 .105-.745l.001.001-1.252-1.669a.531.531 0 0 1 .503-.843h-.003l2.065.295a.53.53 0 0 0 .6-.448v-.003l.451-3.154a.53.53 0 0 0-.448-.6h-.003zm-18.8 2.394v1.262l-1.324.278a1.065 1.065 0 0 0-.654 1.645l-.002-.003.758 1.103-.965.965-1.103-.76a1.062 1.062 0 0 0-1.64.649l-.001.007-.279 1.326H6.272l-.278-1.323a1.063 1.063 0 0 0-1.643-.654l.004-.002-1.106.758-.965-.965.76-1.103a1.062 1.062 0 0 0-.648-1.641l-.007-.001-1.326-.278v-1.261l1.324-.278a1.063 1.063 0 0 0 .654-1.643l.002.004-.758-1.106.965-.965 1.106.758a1.062 1.062 0 0 0 1.64-.649l.001-.007.276-1.324h1.262l.279 1.323a1.065 1.065 0 0 0 1.645.654l-.004.002 1.103-.758.965.965-.758 1.106a1.062 1.062 0 0 0 .649 1.641l.007.001 1.324.276zm-3.575-4.324-.318.219-.367-1.745a.532.532 0 0 0-.518-.422H6.904v-3.717h2.124v5.31a.526.526 0 0 0 .142.355zm2.513-8.851a.531.531 0 0 0-.531.531v7.434h-1.062v-5.31a.531.531 0 0 0-.531-.531H6.372a.531.531 0 0 0-.531.531v4.248a.531.531 0 0 0-.519.418l-.001.003-.367 1.746-1.467-1.012a.517.517 0 0 0-.29-.088h-.011.001v-.006H1.063V1.061h29.736v17.346L29.1 16.141a.53.53 0 0 0-.745-.105l.001-.001-1.669 1.252a.531.531 0 0 1-.843-.503v.003l.295-2.065a.53.53 0 0 0-.119-.411l.001.001V4.778a.531.531 0 0 0-.531-.531h-3.186a.531.531 0 0 0-.531.531v10.468l-.134.94a.527.527 0 0 1-.927.266l-.001-.001V7.432a.531.531 0 0 0-.531-.531h-3.185a.531.531 0 0 0-.531.531v8.894l-.318.239a.53.53 0 0 0-.105.745l-.001-.001 1.252 1.669a.531.531 0 0 1-.503.844h.003l-1.389-.198v-7.943a.531.531 0 0 0-.531-.531h-3.186zM24.957 5.31v8.708l-2.124-.304V5.31h2.124zm-5.31 2.655v7.08l-.212-.284a.53.53 0 0 0-.745-.105l.001-.001-1.168.876V7.964h2.124zm-5.31 11.151h-2.124v-6.903h2.124v6.903zm16.23 5.894-1.54-.22a1.593 1.593 0 0 0-1.496 2.537l-.003-.004.933 1.245-1.699 1.274-.933-1.244a1.593 1.593 0 0 0-2.851.721l-.001.009-.22 1.54-2.102-.301.22-1.54a1.593 1.593 0 0 0-2.536-1.497l.004-.003-1.245.933-1.275-1.699 1.244-.933a1.592 1.592 0 0 0-.722-2.85l-.009-.001-1.54-.221.301-2.102 1.54.22a1.593 1.593 0 0 0 1.496-2.537l.003.004-.933-1.244 1.699-1.274.933 1.244a1.593 1.593 0 0 0 2.851-.721l.001-.009.22-1.54 2.102.301-.22 1.54a1.593 1.593 0 0 0 2.536 1.497l-.004.003 1.245-.933 1.274 1.699-1.244.933a1.592 1.592 0 0 0 .721 2.85l.009.001 1.54.22-.301 2.102z"/><path fill="#f09f0c" style="fill:var(--color17, #f09f0c)" d="M6.903 21.771a3.185 3.185 0 1 0-.001 6.37 3.185 3.185 0 0 0 .001-6.37zm0 5.309a2.124 2.124 0 0 1 0-4.248 2.124 2.124 0 0 1 0 4.248zm15.93-8.495a4.248 4.248 0 1 0 0 8.496 4.248 4.248 0 0 0 0-8.496zm0 7.433a3.186 3.186 0 1 1 0-6.372 3.186 3.186 0 0 1 0 6.372zM21.346 2.134l-2.655-.531-.212 1.041 1.287.258-14.194 8.321.538.916 14.376-8.428-.298 1.492 1.041.208.531-2.655a.531.531 0 0 0-.411-.622l-.003-.001zM3.186 14.337H2.124v3.717h1.062v-3.717zm0-2.124H2.124v1.062h1.062v-1.062zm26.55-5.311h-1.062v7.965h1.062V6.902zm0-2.123h-1.062v1.062h1.062V4.779zM13.275 30.266h-1.062v1.062h1.062v-1.062zm2.124 0h-1.062v1.062h1.062v-1.062zm2.124 0h-1.062v1.062h1.062v-1.062z"/></symbol><symbol id="icon-icon-solution" viewBox="0 0 32 32"><path fill="#f09f0c" style="fill:var(--color17, #f09f0c)" d="M10.137 18.142a1.583 1.583 0 0 1-1.599-1.492c2.026-.853 3.251-2.878 3.198-5.063v-.373a4.777 4.777 0 0 0-4.797-4.797H.543c-.32 0-.533.213-.533.533 0 1.226.48 2.398 1.279 3.251-.107.533-.213 1.013-.213 1.546a5.387 5.387 0 0 0 3.198 4.904 1.583 1.583 0 0 1-1.599 1.492A2.639 2.639 0 0 0 .01 20.808v10.66c0 .32.214.533.534.533h11.725c.32 0 .533-.213.533-.533v-10.66a2.64 2.64 0 0 0-2.665-2.665zM1.13 7.483h5.809c1.866 0 3.411 1.386 3.678 3.198H4.808c-1.866 0-3.411-1.386-3.677-3.198zm1.012 4.264c0-.266 0-.533.053-.746.799.48 1.706.746 2.612.746h5.863c0 1.812-1.119 3.411-2.825 3.997a.512.512 0 0 0-.373.48v.319c0 .693.267 1.386.799 1.919l-1.386.213h-.959l-1.386-.213c.533-.48.799-1.173.799-1.919v-.266a.512.512 0 0 0-.373-.48 4.314 4.314 0 0 1-2.825-4.051zm5.33 14.23L6.406 26.99l-1.013-1.013.959-6.236h.16l.959 6.236zm-6.396-5.169c0-.853.693-1.599 1.546-1.599l2.612.427-1.013 6.396c0 .16.053.32.16.48l1.599 1.599a.515.515 0 0 0 .746 0l1.599-1.599c.107-.107.16-.267.16-.48l-1.013-6.396 2.612-.427c.853 0 1.546.746 1.546 1.599v7.995H1.077v-7.995zm10.66 10.126H1.076v-1.066h10.66v1.066z"/><path fill="#f09f0c" style="fill:var(--color17, #f09f0c)" d="M29.858 4.285H27.46l-.586-.906c-.267-.427-.8-.693-1.332-.693h-1.173a.52.52 0 0 1-.533-.427C23.303.553 21.544-.352 19.839.127a3.292 3.292 0 0 0-2.125 2.109l-.007.023c-.053.213-.267.427-.533.427h-1.172c-.533 0-1.013.267-1.332.693l-.533.906h-2.398a2.138 2.138 0 0 0-2.132 2.132h1.066a1.07 1.07 0 0 1 1.066-1.066h1.706c-.32.48-.107 1.172.373 1.439.16.107.373.16.533.16h12.951a1.07 1.07 0 0 0 1.066-1.066.898.898 0 0 0-.16-.533h1.652a1.07 1.07 0 0 1 1.066 1.065v23.452a1.07 1.07 0 0 1-1.065 1.066h-15.99V32H29.86a2.138 2.138 0 0 0 2.132-2.132V6.417a2.138 2.138 0 0 0-2.132-2.132zm-15.51 1.599 1.226-1.919a.676.676 0 0 1 .48-.213h1.172c.693 0 1.332-.48 1.546-1.172.373-1.119 1.546-1.759 2.665-1.386.693.213 1.172.746 1.386 1.386.213.693.853 1.172 1.546 1.172h1.173c.16 0 .32.107.426.213l1.279 1.919H14.349z"/><path fill="#f09f0c" style="fill:var(--color17, #f09f0c)" d="M21.33 2.153h-1.066v1.066h1.066V2.154zm-2.825 11.033-.746-.746-1.226 1.226-1.226-1.226-.746.746 1.226 1.226-1.226 1.226.746.746 1.226-1.226 1.226 1.226.746-.746-1.226-1.226 1.226-1.226zm5.863 10.659-.746-.746-1.226 1.226-1.226-1.226-.746.746 1.226 1.226-1.226 1.226.746.746 1.226-1.226 1.226 1.226.746-.746-1.226-1.226 1.226-1.226z"/><path fill="#f09f0c" style="fill:var(--color17, #f09f0c)" d="M24.901 15.105a.515.515 0 0 0-.746 0l-2.132 2.132.746.746 1.226-1.226v1.129a2.388 2.388 0 0 1-2.388 2.388h-.01.001-.007a3.458 3.458 0 0 0-3.458 3.458v.55a2.388 2.388 0 0 1-2.388 2.388h-1.342v1.066h1.332a3.457 3.457 0 0 0 3.464-3.464v-.543a2.388 2.388 0 0 1 2.388-2.388h.01-.001a3.458 3.458 0 0 0 3.465-3.464v-1.119l1.226 1.226.746-.746-2.132-2.132zm3.198-6.13-.746-.8-.693.693c-1.279-1.173-3.304-1.066-4.477.266s-1.066 3.305.266 4.477 3.305 1.066 4.477-.267a3.147 3.147 0 0 0 .426-3.624l.746-.746zm-3.571 4.371c-1.172 0-2.132-.959-2.132-2.132s.959-2.132 2.132-2.132a2.13 2.13 0 0 1 1.386.533l-1.386 1.386-.693-.692-.746.746 1.066 1.066a.515.515 0 0 0 .746 0l1.599-1.599c.107.213.16.426.16.693 0 1.172-.96 2.132-2.132 2.132zm-14.391 8.528H8.538v1.066h1.599v-1.066z"/><path fill="#f09f0c" style="fill:var(--color17, #f09f0c)" d="M28.792 6.95v21.852H13.868v1.066h15.456c.32 0 .533-.213.533-.533V6.95h-1.066z"/></symbol></defs></svg>