<svg width="28" height="20" viewBox="0 0 28 20" fill="none" xmlns="http://www.w3.org/2000/svg">
<path d="M28 17C28 16.4531 27.4714 16 26.8333 16H1.16667C0.528646 16 0 16.4531 0 17V19C0 19.5469 0.528646 20 1.16667 20H26.8333C27.4714 20 28 19.5469 28 19V17ZM28 9C28 8.45313 27.4714 8 26.8333 8H1.16667C0.528646 8 0 8.45313 0 9V11C0 11.5469 0.528646 12 1.16667 12H26.8333C27.4714 12 28 11.5469 28 11V9ZM28 1C28 0.453125 27.4714 0 26.8333 0H1.16667C0.528646 0 0 0.453125 0 1V3C0 3.54688 0.528646 4 1.16667 4H26.8333C27.4714 4 28 3.54688 28 3V1Z" fill="white"/>
</svg>
