<svg width="50" height="50" viewBox="0 0 50 50" fill="none" xmlns="http://www.w3.org/2000/svg">
<path fill-rule="evenodd" clip-rule="evenodd" d="M45.0376 4.96245C41.8187 1.77039 37.5805 0 33.0472 0C28.514 0 24.2758 1.77039 21.0569 4.96245C18.5622 7.45708 16.926 10.6223 16.3358 14.029C16.2822 14.3777 16.2285 14.7264 16.2017 15.0751L16.1212 16.1212C16.0944 16.3895 16.0944 16.6845 16.0944 16.9528V19.2597V20.3058V21.3519V33.9324H28.6749H29.721H30.7672L30.7672 33.9325C30.7403 34.2812 30.7135 34.6298 30.6599 34.9785C30.6062 35.3272 30.5526 35.6759 30.4721 36.0246C29.9088 38.6534 28.5676 41.0139 26.7436 42.8647C24.2489 45.3594 20.7886 46.9152 16.9796 46.9152C9.36159 46.9152 3.16524 40.7188 3.16524 33.1008C3.16524 29.2918 4.72103 25.8315 7.21567 23.3368C9.06653 21.486 11.427 20.1716 14.0558 19.6083V17.0064V16.3894C10.6491 16.9796 7.48391 18.6158 4.98927 21.1105C1.77039 24.2489 0 28.5139 0 33.0471C0 37.5804 1.77039 41.8186 4.96245 45.0375C8.15451 48.2296 12.4195 49.9999 16.9528 49.9999C21.4861 49.9999 25.7243 48.2296 28.9431 45.0375C31.9474 42.0332 33.691 38.0901 33.8788 33.8787C33.8788 33.7446 33.8788 33.6105 33.9056 33.4763V33.2617V33.0471V30.7403V16.0944H21.3251H20.279H19.2617C19.2879 15.7546 19.3147 15.4149 19.367 15.0751C19.4206 14.7264 19.4743 14.3777 19.5547 14.029C20.118 11.4002 21.4592 9.0397 23.2833 7.18884C25.7779 4.69421 29.2382 3.13841 33.0472 3.13841C40.6652 3.13841 46.8616 9.33476 46.8616 16.9528C46.8616 20.7618 45.3058 24.2221 42.8112 26.7167C40.9603 28.5676 38.5998 29.882 35.971 30.4453V30.7403V33.0472V33.6642C39.3777 33.074 42.5429 31.4378 45.0376 28.9431C48.2296 25.7511 50 21.4861 50 16.9528C50 12.4195 48.2296 8.15451 45.0376 4.96245ZM30.7672 19.2329V28.7018V29.7211V30.7672H29.721H19.2328V21.2984V19.2329H20.2522H21.2983H30.7672Z" fill="#F7654A"/>
</svg>
