<svg aria-hidden="true" style="position:absolute;width:0;height:0;overflow:hidden" xmlns="http://www.w3.org/2000/svg"><defs><symbol id="icon-logo" viewBox="0 0 32 32"><path fill="#f7654a" style="fill:var(--color1, #f7654a)" d="M28.824 3.176C26.764 1.133 24.051 0 21.15 0s-5.614 1.133-7.674 3.176a10.807 10.807 0 0 0-3.021 5.803c-.034.223-.069.446-.086.669l-.052.669c-.017.172-.017.361-.017.532v10.867h9.391c-.017.223-.034.446-.069.669s-.069.446-.12.669c-.36 1.682-1.219 3.193-2.386 4.378a8.823 8.823 0 0 1-6.249 2.592c-4.876 0-8.841-3.966-8.841-8.841 0-2.438.996-4.652 2.592-6.249a8.795 8.795 0 0 1 4.378-2.386v-2.06a10.824 10.824 0 0 0-5.803 3.021C1.133 15.518 0 18.247 0 21.148s1.133 5.614 3.176 7.674c2.043 2.043 4.772 3.176 7.674 3.176s5.614-1.133 7.674-3.176a10.731 10.731 0 0 0 3.159-7.142c0-.086 0-.172.017-.258V10.298h-9.372c.017-.217.034-.435.067-.652a8.94 8.94 0 0 1 2.506-5.047 8.823 8.823 0 0 1 6.249-2.592c4.876 0 8.841 3.966 8.841 8.841a8.827 8.827 0 0 1-2.592 6.249 8.788 8.788 0 0 1-4.378 2.386v2.06a10.824 10.824 0 0 0 5.803-3.021C30.867 16.479 32 13.75 32 10.848s-1.133-5.631-3.176-7.674zm-9.133 9.133v7.382h-7.382v-7.382h7.382z"/></symbol><symbol id="icon-icon-menu" viewBox="0 0 45 32"><path fill="#fff" style="fill:var(--color2, #fff)" d="M44.8 27.2c0-.875-.846-1.6-1.867-1.6H1.866c-1.021 0-1.867.725-1.867 1.6v3.2c0 .875.846 1.6 1.867 1.6h41.067c1.021 0 1.867-.725 1.867-1.6v-3.2zm0-12.8c0-.875-.846-1.6-1.867-1.6H1.866c-1.021 0-1.867.725-1.867 1.6v3.2c0 .875.846 1.6 1.867 1.6h41.067c1.021 0 1.867-.725 1.867-1.6v-3.2zm0-12.8c0-.875-.846-1.6-1.867-1.6H1.866C.845 0-.001.725-.001 1.6v3.2c0 .875.846 1.6 1.867 1.6h41.067c1.021 0 1.867-.725 1.867-1.6V1.6z"/></symbol><symbol id="icon-icon-envelope" viewBox="0 0 38 32"><path d="M38.4 10.033a12.618 12.618 0 0 1-2.143 1.864c-3.578 2.421-7.178 4.864-10.671 7.393-1.8 1.329-4.029 2.957-6.364 2.957h-.043c-2.336 0-4.564-1.629-6.364-2.957-3.493-2.55-7.093-4.971-10.65-7.393a11.997 11.997 0 0 1-2.164-1.864v17.014a3.438 3.438 0 0 0 3.429 3.428h31.543a3.438 3.438 0 0 0 3.428-3.428V10.033zm0-6.3c0-1.886-1.564-3.429-3.428-3.429H3.429C1.136.304 0 2.104 0 4.204c0 1.95 2.164 4.371 3.686 5.4 3.321 2.314 6.686 4.629 10.007 6.964 1.393.964 3.75 2.936 5.486 2.936h.043c1.736 0 4.093-1.971 5.486-2.936 3.321-2.336 6.686-4.65 10.029-6.964 1.886-1.307 3.664-3.471 3.664-5.871z"/></symbol></defs></svg>